<svg width="30" height="31" viewBox="0 0 30 31" fill="none" xmlns="http://www.w3.org/2000/svg">
<path d="M4.73926 7.42641L22.3527 25.04" stroke="white" stroke-width="2.5" stroke-linecap="round"/>
<path fill-rule="evenodd" clip-rule="evenodd" d="M10.5466 12.9452L5.99112 17.5007C5.50296 17.9888 5.50296 18.7803 5.99112 19.2684C6.47927 19.7566 7.27073 19.7566 7.75888 19.2684L12.3143 14.713L10.5466 12.9452ZM13.75 16.1487L13.75 26.5096C13.75 27.1999 14.3096 27.7596 15 27.7596C15.6904 27.7596 16.25 27.1999 16.25 26.5096L16.25 18.6487L13.75 16.1487ZM16.25 15.1132V13.2773L22.2411 19.2684C22.7293 19.7566 23.5207 19.7566 24.0089 19.2684C24.497 18.7803 24.497 17.9888 24.0089 17.5007L15 8.49179L12.3143 11.1775L16.25 15.1132ZM8.27137 7.13452H22.8125C23.5029 7.13452 24.0625 6.57488 24.0625 5.88452C24.0625 5.19417 23.5029 4.63452 22.8125 4.63452H6.875C6.56708 4.63452 6.28517 4.74586 6.06732 4.93047L8.27137 7.13452Z" fill="white"/>
</svg>
