<svg width="17" height="17" viewBox="0 0 17 17" fill="none" xmlns="http://www.w3.org/2000/svg">
<circle opacity="0.5" cx="8.5" cy="8.5" r="8.5" fill="black"/>
<mask id="path-2-outside-1_774_7538" maskUnits="userSpaceOnUse" x="0.535156" y="0.522095" width="16" height="16" fill="black">
<rect fill="white" x="0.535156" y="0.522095" width="16" height="16"/>
<path d="M15.4671 8.48807C15.4671 12.3353 12.3483 15.4541 8.50113 15.4541C4.65393 15.4541 1.53516 12.3353 1.53516 8.48807C1.53516 4.64087 4.65393 1.52209 8.50113 1.52209C12.3483 1.52209 15.4671 4.64087 15.4671 8.48807ZM2.79439 8.48807C2.79439 11.6398 5.34939 14.1948 8.50113 14.1948C11.6529 14.1948 14.2079 11.6398 14.2079 8.48807C14.2079 5.33633 11.6529 2.78133 8.50113 2.78133C5.34939 2.78133 2.79439 5.33633 2.79439 8.48807Z"/>
</mask>
<path d="M15.4671 8.48807C15.4671 12.3353 12.3483 15.4541 8.50113 15.4541C4.65393 15.4541 1.53516 12.3353 1.53516 8.48807C1.53516 4.64087 4.65393 1.52209 8.50113 1.52209C12.3483 1.52209 15.4671 4.64087 15.4671 8.48807ZM2.79439 8.48807C2.79439 11.6398 5.34939 14.1948 8.50113 14.1948C11.6529 14.1948 14.2079 11.6398 14.2079 8.48807C14.2079 5.33633 11.6529 2.78133 8.50113 2.78133C5.34939 2.78133 2.79439 5.33633 2.79439 8.48807Z" fill="black" fill-opacity="0.6"/>
<path d="M15.4671 8.48807C15.4671 12.3353 12.3483 15.4541 8.50113 15.4541C4.65393 15.4541 1.53516 12.3353 1.53516 8.48807C1.53516 4.64087 4.65393 1.52209 8.50113 1.52209C12.3483 1.52209 15.4671 4.64087 15.4671 8.48807ZM2.79439 8.48807C2.79439 11.6398 5.34939 14.1948 8.50113 14.1948C11.6529 14.1948 14.2079 11.6398 14.2079 8.48807C14.2079 5.33633 11.6529 2.78133 8.50113 2.78133C5.34939 2.78133 2.79439 5.33633 2.79439 8.48807Z" stroke="white" stroke-opacity="0.2" stroke-width="0.823376" mask="url(#path-2-outside-1_774_7538)"/>
<rect x="10.3203" y="5.70374" width="1.38059" height="6.52985" transform="rotate(45 10.3203 5.70374)" fill="white"/>
<rect x="5.70312" y="6.68762" width="1.38059" height="6.52985" transform="rotate(-45 5.70312 6.68762)" fill="white"/>
</svg>
