<svg width="60" height="60" viewBox="0 0 60 60" fill="none" xmlns="http://www.w3.org/2000/svg">
<rect width="60" height="60" rx="8" fill="#F2F2F2"/>
<path d="M25.0029 22.75L26.8154 19.125H34.0654L35.8779 22.75H25.0029Z" stroke="black" stroke-width="2.41667" stroke-linejoin="round"/>
<path d="M40.7116 22.75H20.1699C19.1689 22.75 18.3574 23.5615 18.3574 24.5625V39.0625C18.3574 40.0635 19.1689 40.875 20.1699 40.875H40.7116C41.7126 40.875 42.5241 40.0635 42.5241 39.0625V24.5625C42.5241 23.5615 41.7126 22.75 40.7116 22.75Z" stroke="black" stroke-width="2.41667" stroke-linejoin="round"/>
<path d="M30.4408 36.6459C33.1101 36.6459 35.2741 34.482 35.2741 31.8126C35.2741 29.1432 33.1101 26.9792 30.4408 26.9792C27.7714 26.9792 25.6074 29.1432 25.6074 31.8126C25.6074 34.482 27.7714 36.6459 30.4408 36.6459Z" stroke="black" stroke-width="2.41667" stroke-linejoin="round"/>
</svg>
