<svg width="16" height="17" viewBox="0 0 16 17" fill="none" xmlns="http://www.w3.org/2000/svg">
<path d="M3.71045 7.39225V10.0399C3.71045 10.4759 3.54969 10.8972 3.27439 11.2131L2.55566 12.0261V12.6801H10.5004L4.33493 5.08274C3.94323 5.74419 3.71043 6.53311 3.71043 7.39225H3.71045ZM7.51836 14.8991C8.17242 14.8991 8.68052 14.3356 8.68052 13.6132H6.35622C6.35622 14.3356 6.86432 14.8991 7.51836 14.8991ZM13.3328 13.1106L12.4829 12.0612V12.0242L12.1633 11.6639L12.1337 11.6288L11.5646 10.9286L11.5609 10.9193C11.415 10.6551 11.3355 10.3484 11.3355 10.0399V7.39224C11.3355 5.38388 10.0496 3.70625 8.37012 3.26282V2.84157C8.37012 2.37596 8.13732 1.96209 7.73083 1.86419C7.14883 1.71452 6.67771 2.2023 6.67771 2.83418V3.27761C6.33589 3.36813 6.00888 3.50301 5.70401 3.69146C5.70216 3.69146 5.70216 3.69331 5.70032 3.69331L4.44949 2.15057C4.28134 1.94363 3.98204 1.91592 3.78249 2.08959C3.58296 2.26326 3.55523 2.57367 3.72337 2.78059L4.94834 4.2901L4.94095 4.29748L11.7346 12.6801H11.7476L12.6085 13.7406C12.7767 13.9476 13.076 13.9753 13.2755 13.8016C13.4751 13.6279 13.5009 13.3176 13.3328 13.1106Z" fill="#C1C1C1"/>
</svg>
