<svg width="83" height="32" viewBox="0 0 83 32" fill="none" xmlns="http://www.w3.org/2000/svg">
<rect x="6.85254" y="10.0469" width="3.12283" height="12.1162" rx="1.56142" fill="white"/>
<rect x="26.7041" y="12.7676" width="3.12283" height="6.67391" rx="1.56142" fill="white"/>
<rect x="0.235352" y="12.7676" width="3.12283" height="6.67391" rx="1.56142" fill="white"/>
<rect x="46.5557" y="0.867188" width="3.12283" height="30.4766" rx="1.56142" fill="white"/>
<rect x="66.4072" y="11.5781" width="3.12283" height="9.05449" rx="1.56142" fill="white"/>
<rect x="13.4697" y="0.867188" width="3.12283" height="30.4766" rx="1.56142" fill="white"/>
<rect x="33.3213" y="6.44727" width="3.12283" height="19.3152" rx="1.56142" fill="white"/>
<rect x="53.1729" y="6.44727" width="3.12283" height="19.3152" rx="1.56142" fill="white"/>
<rect x="73.0244" y="8.34766" width="3.12283" height="15.5152" rx="1.56142" fill="white"/>
<rect x="20.0869" y="10.0469" width="3.12283" height="12.1162" rx="1.56142" fill="white"/>
<rect x="39.9385" y="10.0469" width="3.12283" height="12.1162" rx="1.56142" fill="white"/>
<rect x="59.79" y="11.5781" width="3.12283" height="9.05449" rx="1.56142" fill="white"/>
<rect x="79.6416" y="12.7676" width="3.12283" height="6.67391" rx="1.56142" fill="white"/>
</svg>
