<svg width="53" height="52" viewBox="0 0 53 52" fill="none" xmlns="http://www.w3.org/2000/svg">
<circle cx="26.6631" cy="26.0037" r="26" fill="#F9A866"/>
<path d="M20.9961 28.087H17.1211V35.1911C17.1211 36.2612 17.9885 37.1286 19.0586 37.1286C20.1287 37.1286 20.9961 36.2612 20.9961 35.1911V28.087Z" stroke="white" stroke-width="2.57"/>
<path d="M22.9342 17.7537H16.4759C15.4058 17.7537 14.5384 18.6211 14.5384 19.6912V26.1495C14.5384 27.2196 15.4058 28.087 16.4759 28.087H23.5801" stroke="white" stroke-width="2.57" stroke-linecap="round"/>
<path d="M32.6214 19.0453H33.9131C36.0532 19.0453 37.7881 20.7803 37.7881 22.9203C37.7881 25.0604 36.0532 26.7953 33.9131 26.7953H32.6214" stroke="white" stroke-width="2.57" stroke-linejoin="round"/>
<path d="M32.493 31.3162C32.5637 31.3162 32.6211 31.2588 32.6211 31.188V14.0068C32.6211 13.936 32.5637 13.8787 32.493 13.8787H30.3607C25.5455 13.8787 21.6419 17.7822 21.6419 22.5974C21.6419 27.4126 25.5455 31.3162 30.3607 31.3162H32.493Z" stroke="white" stroke-width="2.57"/>
</svg>
