<svg width="17" height="17" viewBox="0 0 17 17" fill="none" xmlns="http://www.w3.org/2000/svg">
<circle opacity="0.5" cx="8.5" cy="8.5" r="8.5" fill="black"/>
<path fill-rule="evenodd" clip-rule="evenodd" d="M10.8096 7.51119L8.52453 11.469L6.23949 7.51119L8.12875 7.51119L8.12875 5.22702L8.92031 5.22702L8.92031 7.51119L10.8096 7.51119Z" fill="white"/>
<mask id="path-3-outside-1_774_7546" maskUnits="userSpaceOnUse" x="0.53418" y="0.522095" width="16" height="16" fill="black">
<rect fill="white" x="0.53418" y="0.522095" width="16" height="16"/>
<path d="M15.4661 8.48807C15.4661 12.3353 12.3474 15.4541 8.50016 15.4541C4.65295 15.4541 1.53418 12.3353 1.53418 8.48807C1.53418 4.64087 4.65295 1.52209 8.50016 1.52209C12.3474 1.52209 15.4661 4.64087 15.4661 8.48807ZM2.79342 8.48807C2.79342 11.6398 5.34841 14.1948 8.50016 14.1948C11.6519 14.1948 14.2069 11.6398 14.2069 8.48807C14.2069 5.33633 11.6519 2.78133 8.50016 2.78133C5.34841 2.78133 2.79342 5.33633 2.79342 8.48807Z"/>
</mask>
<path d="M15.4661 8.48807C15.4661 12.3353 12.3474 15.4541 8.50016 15.4541C4.65295 15.4541 1.53418 12.3353 1.53418 8.48807C1.53418 4.64087 4.65295 1.52209 8.50016 1.52209C12.3474 1.52209 15.4661 4.64087 15.4661 8.48807ZM2.79342 8.48807C2.79342 11.6398 5.34841 14.1948 8.50016 14.1948C11.6519 14.1948 14.2069 11.6398 14.2069 8.48807C14.2069 5.33633 11.6519 2.78133 8.50016 2.78133C5.34841 2.78133 2.79342 5.33633 2.79342 8.48807Z" fill="black" fill-opacity="0.6"/>
<path d="M15.4661 8.48807C15.4661 12.3353 12.3474 15.4541 8.50016 15.4541C4.65295 15.4541 1.53418 12.3353 1.53418 8.48807C1.53418 4.64087 4.65295 1.52209 8.50016 1.52209C12.3474 1.52209 15.4661 4.64087 15.4661 8.48807ZM2.79342 8.48807C2.79342 11.6398 5.34841 14.1948 8.50016 14.1948C11.6519 14.1948 14.2069 11.6398 14.2069 8.48807C14.2069 5.33633 11.6519 2.78133 8.50016 2.78133C5.34841 2.78133 2.79342 5.33633 2.79342 8.48807Z" stroke="white" stroke-opacity="0.2" stroke-width="0.823376" mask="url(#path-3-outside-1_774_7546)"/>
</svg>
