<svg width="29" height="29" viewBox="0 0 29 29" fill="none" xmlns="http://www.w3.org/2000/svg">
<path d="M7.73047 16.7368C8.69697 16.7368 9.48047 15.9533 9.48047 14.9868C9.48047 14.0203 8.69697 13.2368 7.73047 13.2368C6.76397 13.2368 5.98047 14.0203 5.98047 14.9868C5.98047 15.9533 6.76397 16.7368 7.73047 16.7368Z" fill="black"/>
<path d="M14.7305 16.7368C15.697 16.7368 16.4805 15.9533 16.4805 14.9868C16.4805 14.0203 15.697 13.2368 14.7305 13.2368C13.764 13.2368 12.9805 14.0203 12.9805 14.9868C12.9805 15.9533 13.764 16.7368 14.7305 16.7368Z" fill="black"/>
<path d="M21.7305 16.7368C22.697 16.7368 23.4805 15.9533 23.4805 14.9868C23.4805 14.0203 22.697 13.2368 21.7305 13.2368C20.764 13.2368 19.9805 14.0203 19.9805 14.9868C19.9805 15.9533 20.764 16.7368 21.7305 16.7368Z" fill="black"/>
</svg>
