<svg width="29" height="29" viewBox="0 0 29 29" fill="none" xmlns="http://www.w3.org/2000/svg">
<path d="M14.7301 26.6534C21.1735 26.6534 26.3968 21.4301 26.3968 14.9867C26.3968 8.54341 21.1735 3.32007 14.7301 3.32007C8.28682 3.32007 3.06348 8.54341 3.06348 14.9867C3.06348 21.4301 8.28682 26.6534 14.7301 26.6534Z" stroke="black" stroke-width="2.33333" stroke-linejoin="round"/>
<path d="M19.9808 10.3201L17.6475 12.6534L19.9808 14.9867" stroke="black" stroke-width="2.33333" stroke-linecap="round" stroke-linejoin="round"/>
<path d="M18.8141 19.0701C18.8141 19.0701 17.6475 21.4034 14.7308 21.4034C11.8141 21.4034 10.6475 19.0701 10.6475 19.0701" stroke="black" stroke-width="2.33333" stroke-linecap="round" stroke-linejoin="round"/>
<path d="M10.6468 14.9867C11.9355 14.9867 12.9801 13.9421 12.9801 12.6534C12.9801 11.3647 11.9355 10.3201 10.6468 10.3201C9.35815 10.3201 8.31348 11.3647 8.31348 12.6534C8.31348 13.9421 9.35815 14.9867 10.6468 14.9867Z" stroke="black" stroke-width="2.33333" stroke-linecap="round" stroke-linejoin="round"/>
</svg>
