<svg width="37" height="37" viewBox="0 0 37 37" fill="none" xmlns="http://www.w3.org/2000/svg">
<path fill-rule="evenodd" clip-rule="evenodd" d="M6.73047 4.51294C6.73047 3.68451 7.40204 3.01294 8.23047 3.01294H23.2305L30.7305 10.5129V31.5129C30.7305 32.3414 30.0589 33.0129 29.2305 33.0129H8.23047C7.40204 33.0129 6.73047 32.3414 6.73047 31.5129V4.51294ZM11.2305 15.0129C11.2305 14.1845 11.902 13.5129 12.7305 13.5129H24.7305C25.5589 13.5129 26.2305 14.1845 26.2305 15.0129C26.2305 15.8414 25.5589 16.5129 24.7305 16.5129H12.7305C11.902 16.5129 11.2305 15.8414 11.2305 15.0129ZM12.7305 19.5129C11.902 19.5129 11.2305 20.1845 11.2305 21.0129C11.2305 21.8414 11.902 22.5129 12.7305 22.5129H24.7305C25.5589 22.5129 26.2305 21.8414 26.2305 21.0129C26.2305 20.1845 25.5589 19.5129 24.7305 19.5129H12.7305Z" fill="#C6CBD7"/>
</svg>
