<svg width="53" height="52" viewBox="0 0 53 52" fill="none" xmlns="http://www.w3.org/2000/svg">
<circle cx="26.6631" cy="26.0037" r="26" fill="#4679FF"/>
<path d="M26.1633 22.936C28.6929 22.936 30.7435 20.924 30.7435 18.4421C30.7435 15.9603 28.6929 13.9483 26.1633 13.9483C23.6336 13.9483 21.583 15.9603 21.583 18.4421C21.583 20.924 23.6336 22.936 26.1633 22.936Z" stroke="white" stroke-width="2.5679" stroke-linecap="round" stroke-linejoin="round"/>
<path d="M18.3106 14.7539C17.124 15.566 16.3477 16.9151 16.3477 18.4423C16.3477 20.0769 17.2373 21.5078 18.5674 22.2941" stroke="white" stroke-width="2.5679" stroke-linecap="round" stroke-linejoin="round"/>
<path d="M34.0146 14.7539C35.2013 15.566 35.9776 16.9151 35.9776 18.4423C35.9776 19.9693 35.2013 21.3186 34.0146 22.1306" stroke="white" stroke-width="2.5679" stroke-linecap="round" stroke-linejoin="round"/>
<path d="M18.3105 35.7754V37.0594H34.0142V35.7754C34.0142 33.3825 34.0142 32.1859 33.6158 31.2421C33.0845 29.9837 32.0655 28.9839 30.7829 28.4627C29.8209 28.0717 28.6014 28.0717 26.1624 28.0717C23.7234 28.0717 22.5039 28.0717 21.5419 28.4627C20.2593 28.9839 19.2403 29.9837 18.709 31.2421C18.3105 32.1859 18.3105 33.3825 18.3105 35.7754Z" stroke="white" stroke-width="2.5679" stroke-linecap="round" stroke-linejoin="round"/>
<path d="M39.2488 37.0594V36.2891C39.2488 33.4128 39.2488 31.9746 38.6783 30.876C38.1764 29.9096 37.3756 29.124 36.3906 28.6316" stroke="white" stroke-width="2.5679" stroke-linecap="round" stroke-linejoin="round"/>
<path d="M13.0762 37.0594V36.2891C13.0762 33.4128 13.0762 31.9746 13.6467 30.876C14.1486 29.9096 14.9493 29.124 15.9343 28.6316" stroke="white" stroke-width="2.5679" stroke-linecap="round" stroke-linejoin="round"/>
</svg>
