<svg width="60" height="60" viewBox="0 0 60 60" fill="none" xmlns="http://www.w3.org/2000/svg">
<rect width="60" height="60" rx="8" fill="#F2F2F2"/>
<path d="M17.917 21.5416C17.917 20.8742 18.458 20.3333 19.1253 20.3333H36.042C36.7094 20.3333 37.2503 20.8742 37.2503 21.5416V26.9791L42.0837 23.3541V37.2499L37.2503 33.6249V38.4583C37.2503 39.1256 36.7094 39.6666 36.042 39.6666H19.1253C18.458 39.6666 17.917 39.1256 17.917 38.4583V21.5416Z" stroke="black" stroke-width="2.41667" stroke-linecap="round" stroke-linejoin="round"/>
<path d="M25.7708 31.2084C27.4392 31.2084 28.7917 29.8559 28.7917 28.1876C28.7917 26.5192 27.4392 25.1667 25.7708 25.1667C24.1025 25.1667 22.75 26.5192 22.75 28.1876C22.75 29.8559 24.1025 31.2084 25.7708 31.2084Z" stroke="black" stroke-width="2.41667" stroke-linecap="round" stroke-linejoin="round"/>
</svg>
