<svg width="20" height="20" viewBox="0 0 20 20" fill="none" xmlns="http://www.w3.org/2000/svg">
<path d="M3.15918 4.36133L14.9015 16.1037" stroke="black" stroke-width="1.66667" stroke-linecap="round"/>
<path fill-rule="evenodd" clip-rule="evenodd" d="M7.03109 8.04053L3.99408 11.0775C3.66864 11.403 3.66864 11.9306 3.99408 12.256C4.31951 12.5815 4.84715 12.5815 5.17259 12.256L8.2096 9.21904L7.03109 8.04053ZM9.16667 10.1761L9.16667 17.0835C9.16667 17.5437 9.53976 17.9168 10 17.9168C10.4602 17.9168 10.8333 17.5437 10.8333 17.0835L10.8333 11.8428L9.16667 10.1761ZM10.8333 9.48575V8.26197L14.8274 12.256C15.1528 12.5815 15.6805 12.5815 16.0059 12.256C16.3314 11.9306 16.3314 11.403 16.0059 11.0775L10 5.07161L8.2096 6.86202L10.8333 9.48575ZM5.51425 4.16667H15.2083C15.6686 4.16667 16.0417 3.79357 16.0417 3.33333C16.0417 2.8731 15.6686 2.5 15.2083 2.5H4.58333C4.37805 2.5 4.19011 2.57422 4.04488 2.6973L5.51425 4.16667Z" fill="black"/>
</svg>
