<svg width="20" height="20" viewBox="0 0 20 20" fill="none" xmlns="http://www.w3.org/2000/svg">
<path d="M4.63733 8.78003V12.0896C4.63733 12.6346 4.43638 13.1612 4.09226 13.5561L3.19385 14.5723V15.3899H13.1248L5.41793 5.89315C4.92831 6.71995 4.63731 7.7061 4.63731 8.78003H4.63733ZM9.39722 18.1636C10.2148 18.1636 10.8499 17.4592 10.8499 16.5562H7.94454C7.94454 17.4592 8.57967 18.1636 9.39722 18.1636ZM16.6653 15.928L15.6029 14.6162V14.57L15.2033 14.1196L15.1664 14.0758L14.4551 13.2004L14.4505 13.1889C14.268 12.8586 14.1687 12.4753 14.1687 12.0896V8.78001C14.1687 6.26956 12.5613 4.17253 10.4619 3.61825V3.09168C10.4619 2.50967 10.1709 1.99234 9.66281 1.86995C8.93531 1.68287 8.3464 2.29259 8.3464 3.08244V3.63673C7.91913 3.74988 7.51037 3.91848 7.12928 4.15405C7.12697 4.15405 7.12697 4.15636 7.12466 4.15636L5.56113 2.22793C5.35094 1.96926 4.97682 1.93462 4.72738 2.1517C4.47796 2.36879 4.4433 2.7568 4.65349 3.01545L6.18469 4.90234L6.17546 4.91157L14.6675 15.3898H14.6837L15.7599 16.7155C15.9701 16.9742 16.3442 17.0088 16.5937 16.7917C16.8431 16.5746 16.8754 16.1867 16.6653 15.928Z" fill="black"/>
</svg>
