<svg width="20" height="20" viewBox="0 0 20 20" fill="none" xmlns="http://www.w3.org/2000/svg">
<path d="M14.4101 8.34329C14.4101 13.532 16.6339 15.189 16.6339 15.189H9.96269H3.2915C3.2915 15.189 5.35557 13.1091 5.50652 8.34329C5.50652 5.92941 7.26039 3.69971 9.96269 3.69971C12.4189 3.69971 14.4101 5.88704 14.4101 8.34329Z" stroke="black" stroke-width="1.48249" stroke-linecap="round" stroke-linejoin="round"/>
<path d="M7.77686 15.5591H12.2243C12.2243 16.7872 11.2287 17.7828 10.0006 17.7828C8.77246 17.7828 7.77686 16.7872 7.77686 15.5591Z" stroke="black" stroke-width="1.48249"/>
<path fill-rule="evenodd" clip-rule="evenodd" d="M10.0001 2.2168C9.18132 2.2168 8.51758 2.88053 8.51758 3.69928H11.4825C11.4825 2.88053 10.8188 2.2168 10.0001 2.2168Z" fill="black"/>
</svg>
