<svg width="17" height="17" viewBox="0 0 17 17" fill="none" xmlns="http://www.w3.org/2000/svg">
<path d="M14.2404 5.01136C14.0338 5.21793 13.9837 5.53102 14.0876 5.80402C14.9032 7.94562 14.4483 10.4603 12.7229 12.1857C10.3798 14.5288 6.58078 14.5288 4.23763 12.1857C1.89449 9.84254 1.89449 6.04355 4.23763 3.70041C5.96299 1.97505 8.4777 1.52015 10.6193 2.33569C10.8923 2.43965 11.2054 2.3895 11.412 2.18294C11.7352 1.85967 11.6589 1.31628 11.2351 1.14477C8.58775 0.0733815 5.44143 0.610989 3.29482 2.7576C0.43098 5.62144 0.43098 10.2647 3.29483 13.1285C6.15867 15.9923 10.8019 15.9923 13.6657 13.1285C15.8123 10.9819 16.3499 7.83558 15.2785 5.18822C15.107 4.76444 14.5637 4.68809 14.2404 5.01136Z" fill="#AEAEAE"/>
</svg>
