<svg width="29" height="29" viewBox="0 0 29 29" fill="none" xmlns="http://www.w3.org/2000/svg">
<path d="M14.7301 26.1534C21.1735 26.1534 26.3968 20.9301 26.3968 14.4867C26.3968 8.04341 21.1735 2.82007 14.7301 2.82007C8.28682 2.82007 3.06348 8.04341 3.06348 14.4867C3.06348 20.9301 8.28682 26.1534 14.7301 26.1534Z" stroke="black" stroke-width="2.33333" stroke-linejoin="round"/>
<path d="M10.6471 15.5948C11.2915 15.5948 11.8138 15.0725 11.8138 14.4281C11.8138 13.7838 11.2915 13.2615 10.6471 13.2615C10.0028 13.2615 9.48047 13.7838 9.48047 14.4281C9.48047 15.0725 10.0028 15.5948 10.6471 15.5948Z" fill="black"/>
<path d="M13.5342 17.3155C14.2731 16.5766 14.7302 15.5557 14.7302 14.4282C14.7302 13.3006 14.2731 12.2797 13.5342 11.5408" stroke="black" stroke-width="2.33333" stroke-linecap="round" stroke-linejoin="round"/>
<path d="M16.4219 20.203C17.8998 18.7251 18.8138 16.6834 18.8138 14.4283C18.8138 12.1731 17.8998 10.1314 16.4219 8.65356" stroke="black" stroke-width="2.33333" stroke-linecap="round" stroke-linejoin="round"/>
</svg>
