<svg width="53" height="52" viewBox="0 0 53 52" fill="none" xmlns="http://www.w3.org/2000/svg">
<circle cx="26.6631" cy="26.0037" r="26" fill="#4679FF"/>
<path d="M26.1637 22.9357C28.6456 22.9357 30.6576 20.9238 30.6576 18.4419C30.6576 15.96 28.6456 13.9481 26.1637 13.9481C23.6819 13.9481 21.6699 15.96 21.6699 18.4419C21.6699 20.9238 23.6819 22.9357 26.1637 22.9357Z" stroke="white" stroke-width="2.5679" stroke-linecap="round" stroke-linejoin="round"/>
<path d="M16.5342 36.2888V37.0592H35.7934V36.2888C35.7934 33.4125 35.7934 31.9744 35.2337 30.8757C34.7413 29.9094 33.9556 29.1237 32.9892 28.6313C31.8906 28.0715 30.4525 28.0715 27.5762 28.0715H24.7515C21.8752 28.0715 20.437 28.0715 19.3384 28.6313C18.372 29.1237 17.5863 29.9094 17.094 30.8757C16.5342 31.9744 16.5342 33.4125 16.5342 36.2888Z" stroke="white" stroke-width="2.5679" stroke-linecap="round" stroke-linejoin="round"/>
</svg>
