<svg width="21" height="20" viewBox="0 0 21 20" fill="none" xmlns="http://www.w3.org/2000/svg">
<path d="M10.7274 18.3332C13.0285 18.3332 15.1119 17.4004 16.6199 15.8924C18.128 14.3843 19.0607 12.301 19.0607 9.99984C19.0607 7.69867 18.128 5.61534 16.6199 4.10728C15.1119 2.59925 13.0285 1.6665 10.7274 1.6665C8.42621 1.6665 6.34288 2.59925 4.83482 4.10728C3.32678 5.61534 2.39404 7.69867 2.39404 9.99984C2.39404 12.301 3.32678 14.3843 4.83482 15.8924C6.34288 17.4004 8.42621 18.3332 10.7274 18.3332Z" stroke="#F74D43" stroke-width="1.66667" stroke-linejoin="round"/>
<path fill-rule="evenodd" clip-rule="evenodd" d="M10.7277 15.4168C11.303 15.4168 11.7694 14.9505 11.7694 14.3752C11.7694 13.7999 11.303 13.3335 10.7277 13.3335C10.1524 13.3335 9.68604 13.7999 9.68604 14.3752C9.68604 14.9505 10.1524 15.4168 10.7277 15.4168Z" fill="#F74D43"/>
<path d="M10.7275 5V11.6667" stroke="#F74D43" stroke-width="1.66667" stroke-linecap="round" stroke-linejoin="round"/>
</svg>
